# xmcd CD database file
#
# Track frame offsets:
#	150
#	13374
#	33215
#	50127
#	68391
#	87242
#	102729
#	116600
#	129248
#	143482
#	160626
#	173773
#	186942
#
# Disc length: 2660 seconds
#
# Revision: 0
# Processed by: cddbd v1.5.2PL0 Copyright (c) Steve Scherf et al.
# Submitted via: CDex 1.51
#
DISCID=a80a620d
DTITLE=Girls From Mars - Return To Planet Swing
DYEAR=2016
DGENRE=Jazz
TTITLE0=Let Me Off Uptown
TTITLE1=Hit That Jive Jack
TTITLE2=Blue Drag
TTITLE3=Don't Blame Me
TTITLE4=Take the A Train
TTITLE5=Daddy Daddy
TTITLE6=On the Sunny Side of the Street
TTITLE7=Rhythm Town
TTITLE8=Comes Love
TTITLE9=Meet Me With Your Black Drawers On
TTITLE10=Left With the Thought of You
TTITLE11=Sway
TTITLE12=Drum Boogie
EXTD=YEAR: 2016
EXTT0=
EXTT1=
EXTT2=
EXTT3=
EXTT4=
EXTT5=
EXTT6=
EXTT7=
EXTT8=
EXTT9=
EXTT10=
EXTT11=
EXTT12=
PLAYORDER=
